# xmcd
#
# Track frame offsets:
#	150
#	16087
#	36342
#	58175
#	75292
#	99087
#	118582
#	134265
#	150662
#	166202
#
# Disc length: 2621 seconds
#
# Revision: 3
# Processed by: cddbd v1.5.2PL0 Copyright (c) Steve Scherf et al.
# Submitted via: audiograbber 1.83.01
#
DISCID=6c0a3b0a
DTITLE=Daniels, Charlie - America, I believe in you
DYEAR=1993
DGENRE=Country
TTITLE0=All night long
TTITLE1=Troubles of my own
TTITLE2=Tennessee two step
TTITLE3=The girl next door
TTITLE4=America, I believe in you
TTITLE5=Oh Juanita
TTITLE6=Sweet little country girl
TTITLE7=Alley cat
TTITLE8=What you gonna do about me
TTITLE9=San Miguel
EXTD=
EXTT0=
EXTT1=
EXTT2=
EXTT3=
EXTT4=
EXTT5=
EXTT6=
EXTT7=
EXTT8=
EXTT9=
PLAYORDER=
